<mxfile host="app.diagrams.net" modified="2024-04-01T04:30:40.779Z" agent="Mozilla/5.0 (Windows NT 10.0; Win64; x64) AppleWebKit/537.36 (KHTML, like Gecko) Chrome/121.0.0.0 Safari/537.36 OPR/107.0.0.0" version="24.2.1" etag="Ey43L8M1rCgn8I_mmW9y" type="github">
  <diagram name="Page-1" id="k1sHCICoJ6FbY1wakm_N">
    <mxGraphModel>
      <root>
        <mxCell id="0" />
        <mxCell id="1" parent="0" />
      </root>
    </mxGraphModel>
  </diagram>
</mxfile>
